<?xml version="1.0" encoding="utf-8"?>
<!-- Generator: Adobe Illustrator 23.0.2, SVG Export Plug-In . SVG Version: 6.00 Build 0)  -->
<svg version="1.1" id="Layer_1" xmlns="http://www.w3.org/2000/svg" xmlns:xlink="http://www.w3.org/1999/xlink" x="0px" y="0px"
	 viewBox="0 0 5.5 6.7" style="enable-background:new 0 0 5.5 6.7;" xml:space="preserve">
<path id="Path_1939" d="M2.9,6.6l2.5-2.7c0.1-0.1,0.1-0.2,0-0.3c0-0.1-0.1-0.1-0.2-0.1H3.7V0.6c0-0.1-0.1-0.2-0.2-0.2c0,0,0,0,0,0
	H2.1c-0.1,0-0.2,0.1-0.2,0.2c0,0,0,0,0,0v2.9H0.2C0.1,3.5,0.1,3.6,0,3.6c0,0.1,0,0.2,0,0.3l2.5,2.7c0,0,0.1,0.1,0.2,0.1
	C2.8,6.7,2.9,6.7,2.9,6.6z"/>
</svg>
