<?xml version="1.0" encoding="utf-8"?>
<!-- Generator: Adobe Illustrator 23.0.2, SVG Export Plug-In . SVG Version: 6.00 Build 0)  -->
<svg version="1.1" id="Capa_1" xmlns="http://www.w3.org/2000/svg" xmlns:xlink="http://www.w3.org/1999/xlink" x="0px" y="0px"
	 viewBox="0 0 202.5 202.5" style="enable-background:new 0 0 202.5 202.5;" xml:space="preserve">
<style type="text/css">
	.st0{fill:#8A5A36;}
	.st1{fill:#72492D;}
	.st2{fill:#4398D1;}
	.st3{fill:#3E8CC7;}
	.st4{fill:#E5E5E5;}
	.st5{fill:#FDB62F;}
	.st6{fill:#DE4C3C;}
</style>
<g>
	<path class="st0" d="M138.2,167.4c-1.7,0-3.1-1.4-3.1-3.1v-43.1c0-1.7,1.4-3.1,3.1-3.1c1.7,0,3.1,1.4,3.1,3.1v43.1
		C141.2,166.1,139.9,167.4,138.2,167.4z"/>
	<path class="st0" d="M187.4,167.4c-1.5,0-2.8-1.1-3.1-2.6l-6.9-41.8c-0.3-1.7,0.9-3.3,2.6-3.6c1.7-0.3,3.3,0.9,3.6,2.6l6.9,41.8
		c0.3,1.7-0.8,3.3-2.5,3.6c0,0-0.1,0-0.1,0H187.4L187.4,167.4z"/>
</g>
<g>
	<path class="st1" d="M183.5,122.1c-0.3-1.7-1.9-2.9-3.6-2.6c-1.7,0.3-2.9,1.9-2.6,3.6l1.2,7.4h6.2L183.5,122.1z"/>
	<path class="st1" d="M141.2,121.2c0-1.7-1.4-3.1-3.1-3.1s-3.1,1.4-3.1,3.1v9.2h6.2L141.2,121.2L141.2,121.2z"/>
</g>
<path class="st2" d="M175.1,115.1l2.7-46.5c0.2-3.3,2.9-5.8,6.2-5.8l0,0c3.4,0,6.2,2.7,6.2,6.1c0,0.1,0,0.2,0,0.3l-2.5,52.3
	c-0.2,3.3-2.9,5.9-6.2,5.8h-43.4c-3.4,0-6.2-2.8-6.2-6.2l0,0c0-3.4,2.8-6.2,6.2-6.2H175.1z"/>
<g>
	<path class="st0" d="M64.3,167.4c1.7,0,3.1-1.4,3.1-3.1v-43.1c0-1.7-1.4-3.1-3.1-3.1c-1.7,0-3.1,1.4-3.1,3.1v43.1
		C61.2,166.1,62.6,167.4,64.3,167.4z"/>
	<path class="st0" d="M15,167.4c1.5,0,2.8-1.1,3.1-2.6l6.9-41.8c0.3-1.7-0.9-3.3-2.6-3.6c-1.7-0.3-3.3,0.9-3.6,2.6l-6.9,41.8
		c-0.3,1.7,0.8,3.3,2.5,3.6c0,0,0.1,0,0.1,0L15,167.4L15,167.4z"/>
</g>
<g>
	<path class="st1" d="M18.9,122.1c0.3-1.7,1.9-2.9,3.6-2.6s2.9,1.9,2.6,3.6l-1.3,7.4h-6.2L18.9,122.1z"/>
	<path class="st1" d="M61.2,121.2c0-1.7,1.4-3.1,3.1-3.1s3.1,1.4,3.1,3.1v9.2h-6.2L61.2,121.2L61.2,121.2z"/>
</g>
<path class="st2" d="M27.3,115.1l-2.7-46.5c-0.2-3.3-2.9-5.8-6.2-5.8l0,0c-3.4,0-6.2,2.7-6.2,6.1c0,0.1,0,0.2,0,0.3l2.5,52.3
	c0.2,3.3,2.9,5.9,6.2,5.8h43.4c3.4,0,6.2-2.8,6.2-6.2l0,0c0-3.4-2.8-6.2-6.2-6.2H27.3z"/>
<g>
	<path class="st0" d="M45.8,167.4c-1.7,0-3.1-1.4-3.1-3.1V90.5c0-1.7,1.4-3.1,3.1-3.1c1.7,0,3.1,1.4,3.1,3.1v73.9
		C48.9,166.1,47.5,167.4,45.8,167.4z"/>
	<path class="st0" d="M156.6,167.4c-1.7,0-3.1-1.4-3.1-3.1V90.5c0-1.7,1.4-3.1,3.1-3.1c1.7,0,3.1,1.4,3.1,3.1v73.9
		C159.7,166.1,158.3,167.4,156.6,167.4z"/>
</g>
<g>
	<rect x="42.7" y="93.5" class="st1" width="6.2" height="6.2"/>
	<rect x="153.5" y="93.5" class="st1" width="6.2" height="6.2"/>
</g>
<path class="st0" d="M61.2,96.6H45.8c-3.4,0-6.2-2.8-6.2-6.2l0,0c0-3.4,2.8-6.2,6.2-6.2h110.8c3.4,0,6.2,2.8,6.2,6.2l0,0
	c0,3.4-2.8,6.2-6.2,6.2H61.2z"/>
<polygon class="st2" points="48.9,84.3 101.2,130.5 153.5,84.3 "/>
<path class="st3" d="M153.5,84.3H139c-18.7,16.3-43.1,23.1-60.9,25.8l23.1,20.4L153.5,84.3z"/>
<g>
	<path class="st4" d="M58.1,56.6h12.3l0,0v9.2c0,3.4-2.8,6.2-6.2,6.2l0,0c-3.4,0-6.2-2.8-6.2-6.2L58.1,56.6L58.1,56.6z"/>
	<rect x="61.2" y="68.9" class="st4" width="6.2" height="15.4"/>
	<path class="st4" d="M132,56.6h12.3l0,0v9.2c0,3.4-2.8,6.2-6.2,6.2l0,0c-3.4,0-6.2-2.8-6.2-6.2L132,56.6L132,56.6z"/>
	<rect x="135.1" y="68.9" class="st4" width="6.2" height="15.4"/>
</g>
<path class="st5" d="M113.5,47.4v12.3c0,1.7-1.4,3.1-3.1,3.1h-6.2V47.4h-6.2v15.4H92c-1.7,0-3.1-1.4-3.1-3.1V47.4h-6.2v12.3
	c0,5.1,4.1,9.2,9.2,9.2h6.2v15.4h6.2V68.9h6.2c5.1,0,9.2-4.1,9.2-9.2V47.4H113.5z"/>
<g>
	<rect x="82.7" y="35" class="st6" width="6.2" height="6.2"/>
	<rect x="98.1" y="35" class="st6" width="6.2" height="6.2"/>
	<rect x="113.5" y="35" class="st6" width="6.2" height="6.2"/>
</g>
<rect x="82.7" y="35" width="6.2" height="6.2"/>
<rect x="98.1" y="35" width="6.2" height="6.2"/>
<rect x="113.5" y="35" width="6.2" height="6.2"/>
<path d="M184,59.7c-4.9,0-9,3.8-9.2,8.7l-2.6,43.6h-12.5V99.1c4.8-1.7,7.3-7,5.5-11.8c-1.3-3.6-4.8-6.1-8.6-6.1h-15.4v-6.7
	c3.7-1.3,6.1-4.8,6.2-8.7v-9.2c0-1.7-1.4-3.1-3.1-3.1H132c-1.7,0-3.1,1.4-3.1,3.1v9.2c0,3.9,2.5,7.4,6.2,8.7v6.7h-30.8V68.9h6.2
	c5.1,0,9.2-4.1,9.2-9.2V47.4h-6.2v12.3c0,1.7-1.4,3.1-3.1,3.1h-6.2V47.4h-6.2v15.4H92c-1.7,0-3.1-1.4-3.1-3.1V47.4h-6.2v12.3
	c0,5.1,4.1,9.2,9.2,9.2h6.2v12.3H67.3v-6.7c3.7-1.3,6.1-4.8,6.2-8.7v-9.2c0-1.7-1.4-3.1-3.1-3.1H58.1c-1.7,0-3.1,1.4-3.1,3.1v9.2
	c0,3.9,2.5,7.4,6.2,8.7v6.7H45.8c-5.1,0-9.2,4.2-9.2,9.3c0,3.9,2.5,7.3,6.1,8.6V112H30.2l-2.6-43.6c-0.3-5.1-4.6-9-9.7-8.7
	s-9,4.6-8.7,9.7l2.5,52.3c0.2,3.7,2.5,6.9,5.9,8.2l-5.7,34c-0.3,1.7,0.8,3.3,2.5,3.6c0,0,0.1,0,0.1,0H15c1.5,0,2.8-1.1,3.1-2.6
	l5.7-34.4h18.9v33.9c0,1.7,1.4,3.1,3.1,3.1c1.7,0,3.1-1.4,3.1-3.1v-33.9h12.3v33.9c0,1.7,1.4,3.1,3.1,3.1s3.1-1.4,3.1-3.1v-34.4
	c4.8-1.7,7.3-7,5.5-11.8c-1.3-3.6-4.8-6.1-8.6-6.1H48.9V99.7h12.3v-0.4l38,33.5c1.2,1,2.9,1,4.1,0l38-33.5v0.4h12.3V112h-15.4
	c-5.1,0-9.2,4.2-9.2,9.3c0,3.9,2.5,7.3,6.1,8.6v34.4c0,1.7,1.4,3.1,3.1,3.1c1.7,0,3.1-1.4,3.1-3.1v-33.9h12.3v33.9
	c0,1.7,1.4,3.1,3.1,3.1s3.1-1.4,3.1-3.1v-33.9h18.9l5.7,34.4c0.2,1.5,1.6,2.6,3.1,2.6h0.5c1.7-0.2,2.8-1.8,2.6-3.5c0,0,0-0.1,0-0.1
	l-5.7-33.9c3.4-1.3,5.8-4.5,6-8.2l2.5-52.3c0.3-5.1-3.7-9.4-8.8-9.7C184.4,59.8,184.2,59.8,184,59.7L184,59.7z M42.7,124.3H20.9
	c-1.7,0-3.1-1.4-3.1-3.1l-2.5-52.3c-0.1-1.7,1.2-3.2,2.9-3.3c0.1,0,0.1,0,0.2,0c1.6,0,3,1.3,3.1,2.9l2.8,46.7
	c0.1,1.6,1.4,2.9,3.1,2.9h15.4L42.7,124.3L42.7,124.3z M153.5,124.3h-15.4c-1.7,0-3.1-1.4-3.1-3.1c0-1.7,1.4-3.1,3.1-3.1h15.4
	L153.5,124.3L153.5,124.3z M135.1,59.7h6.2v6.2c0,1.7-1.4,3.1-3.1,3.1s-3.1-1.4-3.1-3.1L135.1,59.7L135.1,59.7z M61.2,59.7h6.2v6.2
	c0,1.7-1.4,3.1-3.1,3.1c-1.7,0-3.1-1.4-3.1-3.1L61.2,59.7L61.2,59.7z M64.3,118.2c1.7,0,3.1,1.4,3.1,3.1c0,1.7-1.4,3.1-3.1,3.1H48.9
	v-6.2L64.3,118.2L64.3,118.2z M45.8,93.5c-1.7,0-3.1-1.4-3.1-3.1c0-1.7,1.4-3.1,3.1-3.1h1.9l7,6.2L45.8,93.5L45.8,93.5z
	 M101.2,126.4L57,87.4h88.4L101.2,126.4z M156.6,93.5h-8.9l7-6.2h1.9c1.7,0,3.1,1.4,3.1,3.1S158.3,93.5,156.6,93.5z M184.6,121.2
	c0,1.7-1.4,3.1-3.1,3.1h-21.8v-6.2h15.4c1.6,0,3-1.3,3.1-2.9l2.7-46.4c0.1-1.7,1.5-3,3.2-2.9c0.8,0,1.6,0.4,2.1,1
	c0.6,0.6,0.9,1.5,0.9,2.3L184.6,121.2z"/>
</svg>
